<?xml version="1.0" encoding="UTF-8" standalone="no"?>
<!-- Created with Inkscape (http://www.inkscape.org/) -->

<svg
   xmlns:dc="http://purl.org/dc/elements/1.1/"
   xmlns:cc="http://creativecommons.org/ns#"
   xmlns:rdf="http://www.w3.org/1999/02/22-rdf-syntax-ns#"
   xmlns:svg="http://www.w3.org/2000/svg"
   xmlns="http://www.w3.org/2000/svg"
   xmlns:xlink="http://www.w3.org/1999/xlink"
   xmlns:sodipodi="http://sodipodi.sourceforge.net/DTD/sodipodi-0.dtd"
   xmlns:inkscape="http://www.inkscape.org/namespaces/inkscape"
   width="744.09448"
   height="1052.3622"
   id="svg2"
   version="1.1"
   inkscape:version="0.91pre2 r13516"
   viewBox="0 0 744.09448 1052.3622"
   sodipodi:docname="Cover.svg">
  <defs
     id="defs4">
    <linearGradient
       inkscape:collect="always"
       id="linearGradient9949">
      <stop
         style="stop-color:#4da7ff;stop-opacity:0.70569623"
         offset="0"
         id="stop9951" />
      <stop
         style="stop-color:#000000;stop-opacity:0"
         offset="1"
         id="stop9953" />
    </linearGradient>
    <marker
       inkscape:isstock="true"
       style="overflow:visible"
       id="marker9885"
       refX="0.0"
       refY="0.0"
       orient="auto"
       inkscape:stockid="StopM">
      <path
         transform="scale(0.4)"
         style="fill:#000000;fill-opacity:1;fill-rule:evenodd;stroke:#4695e4;stroke-width:1pt;stroke-opacity:0.63137255"
         d="M 0.0,5.65 L 0.0,-5.65"
         id="path9887" />
    </marker>
    <marker
       inkscape:isstock="true"
       style="overflow:visible"
       id="marker9851"
       refX="0.0"
       refY="0.0"
       orient="auto"
       inkscape:stockid="StopM">
      <path
         transform="scale(0.4)"
         style="fill:#4da7ff;fill-opacity:1;fill-rule:evenodd;stroke:#4695e4;stroke-width:1pt;stroke-opacity:0.63137255"
         d="M 0.0,5.65 L 0.0,-5.65"
         id="path9853" />
    </marker>
    <marker
       inkscape:stockid="StopM"
       orient="auto"
       refY="0.0"
       refX="0.0"
       id="StopM"
       style="overflow:visible"
       inkscape:isstock="true"
       inkscape:collect="always">
      <path
         id="path8762"
         d="M 0.0,5.65 L 0.0,-5.65"
         style="fill:none;fill-opacity:0.75;fill-rule:evenodd;stroke:#000000;stroke-width:1pt;stroke-opacity:1"
         transform="scale(0.4)" />
    </marker>
    <marker
       inkscape:stockid="DiamondSend"
       orient="auto"
       refY="0.0"
       refX="0.0"
       id="DiamondSend"
       style="overflow:visible"
       inkscape:isstock="true">
      <path
         id="path8693"
         d="M 0,-7.0710768 L -7.0710894,0 L 0,7.0710589 L 7.0710462,0 L 0,-7.0710768 z "
         style="fill-rule:evenodd;stroke:#000000;stroke-width:1pt;stroke-opacity:1;fill:#000000;fill-opacity:1"
         transform="scale(0.2) translate(-6,0)" />
    </marker>
    <marker
       inkscape:stockid="DotL"
       orient="auto"
       refY="0.0"
       refX="0.0"
       id="DotL"
       style="overflow:visible"
       inkscape:isstock="true">
      <path
         id="path8651"
         d="M -2.5,-1.0 C -2.5,1.7600000 -4.7400000,4.0 -7.5,4.0 C -10.260000,4.0 -12.5,1.7600000 -12.5,-1.0 C -12.5,-3.7600000 -10.260000,-6.0 -7.5,-6.0 C -4.7400000,-6.0 -2.5,-3.7600000 -2.5,-1.0 z "
         style="fill-rule:evenodd;stroke:#000000;stroke-width:1pt;stroke-opacity:1;fill:#000000;fill-opacity:1"
         transform="scale(0.8) translate(7.4, 1)" />
    </marker>
    <linearGradient
       inkscape:collect="always"
       xlink:href="#linearGradient9949"
       id="linearGradient9955"
       x1="435.85455"
       y1="203.51758"
       x2="305.81268"
       y2="672.23987"
       gradientUnits="userSpaceOnUse" />
  </defs>
  <sodipodi:namedview
     id="base"
     pagecolor="#ffffff"
     bordercolor="#666666"
     borderopacity="1.0"
     inkscape:pageopacity="0.0"
     inkscape:pageshadow="2"
     inkscape:zoom="0.69977474"
     inkscape:cx="66.269429"
     inkscape:cy="544.27587"
     inkscape:document-units="px"
     inkscape:current-layer="g9847"
     showgrid="false"
     inkscape:window-width="1517"
     inkscape:window-height="875"
     inkscape:window-x="2102"
     inkscape:window-y="57"
     inkscape:window-maximized="0" />
  <metadata
     id="metadata7">
    <rdf:RDF>
      <cc:Work
         rdf:about="">
        <dc:format>image/svg+xml</dc:format>
        <dc:type
           rdf:resource="http://purl.org/dc/dcmitype/StillImage" />
        <dc:title></dc:title>
      </cc:Work>
    </rdf:RDF>
  </metadata>
  <g
     style="display:inline"
     id="g9847"
     inkscape:groupmode="layer"
     inkscape:label="Head BG"
     sodipodi:insensitive="true">
    <path
       sodipodi:nodetypes="ccsssscsssssc"
       inkscape:connector-curvature="0"
       id="path9849"
       d="m 214.91457,648.84114 c 33.33503,-65.65992 10.10153,-118.18785 10.10153,-118.18785 0,0 -39.39595,-30.30458 -57.5787,-70.71068 -18.18275,-40.4061 -15.15229,-86.87312 -10.10152,-121.2183 5.05076,-34.34519 30.30457,-113.13709 108.08631,-133.34015 77.78175,-20.20305 172.6994,-29.74247 246.47723,64.64977 68.69037,87.88328 35.35534,154.55334 35.35534,154.55334 0,0 20.20305,18.18275 31.31473,38.3858 11.11168,20.20305 12.12183,42.4264 -13.13199,39.39595 -24.2583,-2.911 -20.20305,5.05076 -21.2132,25.25381 -1.01015,20.20305 -6.06092,74.75129 -22.22336,86.87312 -16.16244,12.12183 -93.94418,-5.05076 -101.01525,-1.01015 -7.07107,4.04061 -4.04061,86.87312 -4.04061,86.87312"
       style="opacity:1;fill:url(#linearGradient9955);fill-opacity:1;fill-rule:evenodd;stroke:#4695e4;stroke-width:35;stroke-linecap:butt;stroke-linejoin:round;stroke-miterlimit:4;stroke-dasharray:none;stroke-opacity:0.63137255" />
  </g>
  <g
     inkscape:label="Head"
     inkscape:groupmode="layer"
     id="layer1"
     style="display:inline"
     sodipodi:insensitive="true">
    <path
       style="opacity:1;fill:none;fill-rule:evenodd;stroke:#000000;stroke-width:19.5;stroke-linecap:butt;stroke-linejoin:round;stroke-miterlimit:4;stroke-dasharray:none;stroke-opacity:1;marker-start:url(#StopM);marker-end:url(#StopM)"
       d="m 214.91457,648.84114 c 33.33503,-65.65992 10.10153,-118.18785 10.10153,-118.18785 0,0 -39.39595,-30.30458 -57.5787,-70.71068 -18.18275,-40.4061 -15.15229,-86.87312 -10.10152,-121.2183 5.05076,-34.34519 30.30457,-113.13709 108.08631,-133.34015 77.78175,-20.20305 172.6994,-29.74247 246.47723,64.64977 68.69037,87.88328 35.35534,154.55334 35.35534,154.55334 0,0 20.20305,18.18275 31.31473,38.3858 11.11168,20.20305 12.12183,42.4264 -13.13199,39.39595 -24.2583,-2.911 -20.20305,5.05076 -21.2132,25.25381 -1.01015,20.20305 -6.06092,74.75129 -22.22336,86.87312 -16.16244,12.12183 -93.94418,-5.05076 -101.01525,-1.01015 -7.07107,4.04061 -4.04061,86.87312 -4.04061,86.87312"
       id="path8584"
       inkscape:connector-curvature="0"
       sodipodi:nodetypes="ccsssscsssssc" />
  </g>
  <g
     inkscape:groupmode="layer"
     id="layer2"
     inkscape:label="Functional"
     style="display:inline"
     sodipodi:insensitive="true">
    <flowRoot
       xml:space="preserve"
       id="flowRoot9399"
       style="font-style:normal;font-weight:normal;font-size:40px;line-height:125%;font-family:sans-serif;letter-spacing:0px;word-spacing:0px;fill:#000000;fill-opacity:1;stroke:none;stroke-width:1px;stroke-linecap:butt;stroke-linejoin:miter;stroke-opacity:1"
       transform="translate(-7.3563764e-6,0)"><flowRegion
         id="flowRegion9401"><rect
           id="rect9403"
           width="202.92244"
           height="140.04506"
           x="258.65466"
           y="327.84332" /></flowRegion><flowPara
         id="flowPara9405"
         style="font-style:normal;font-variant:normal;font-weight:normal;font-stretch:normal;font-size:180px;font-family:'Segoe Print';-inkscape-font-specification:'Segoe Print';text-align:center;letter-spacing:0px;word-spacing:2.16000009px;text-anchor:middle">|&gt;</flowPara></flowRoot>    <flowRoot
       xml:space="preserve"
       id="flowRoot9407"
       style="font-style:normal;font-weight:normal;font-size:40px;line-height:125%;font-family:sans-serif;letter-spacing:0px;word-spacing:0px;fill:#000000;fill-opacity:1;stroke:none;stroke-width:1px;stroke-linecap:butt;stroke-linejoin:miter;stroke-opacity:1"
       transform="translate(686.21889,-66.599941)"><flowRegion
         id="flowRegion9409"><rect
           id="rect9411"
           width="411.561"
           height="444.42874"
           x="-521.59644"
           y="240.67241" /></flowRegion><flowPara
         id="flowPara9413"
         style="font-style:normal;font-variant:normal;font-weight:100;font-stretch:normal;font-size:320px;line-height:129.99999523%;font-family:'AR CENA';-inkscape-font-specification:'AR CENA, Thin';text-align:center;writing-mode:lr-tb;text-anchor:middle">|&gt;</flowPara></flowRoot>  </g>
</svg>
